<?xml version="1.0" encoding="UTF-8" standalone="no"?>
<!-- Created with Inkscape (http://www.inkscape.org/) -->

<svg
   xmlns:dc="http://purl.org/dc/elements/1.1/"
   xmlns:cc="http://creativecommons.org/ns#"
   xmlns:rdf="http://www.w3.org/1999/02/22-rdf-syntax-ns#"
   xmlns:svg="http://www.w3.org/2000/svg"
   xmlns="http://www.w3.org/2000/svg"
   xmlns:sodipodi="http://sodipodi.sourceforge.net/DTD/sodipodi-0.dtd"
   xmlns:inkscape="http://www.inkscape.org/namespaces/inkscape"
   width="27.665644mm"
   height="27.100582mm"
   viewBox="0 0 98.027871 96.025684"
   id="svg4150"
   version="1.1"
   inkscape:version="0.91 r13725"
   sodipodi:docname="icon.svg">
  <defs
     id="defs4152" />
  <sodipodi:namedview
     id="base"
     pagecolor="#ffffff"
     bordercolor="#666666"
     borderopacity="1.0"
     inkscape:pageopacity="0.0"
     inkscape:pageshadow="2"
     inkscape:zoom="0.35"
     inkscape:cx="-563.12892"
     inkscape:cy="-6.272864"
     inkscape:document-units="px"
     inkscape:current-layer="layer1"
     showgrid="false"
     fit-margin-top="0"
     fit-margin-left="0"
     fit-margin-right="0"
     fit-margin-bottom="0"
     inkscape:window-width="1920"
     inkscape:window-height="1138"
     inkscape:window-x="1912"
     inkscape:window-y="-8"
     inkscape:window-maximized="1" />
  <metadata
     id="metadata4155">
    <rdf:RDF>
      <cc:Work
         rdf:about="">
        <dc:format>image/svg+xml</dc:format>
        <dc:type
           rdf:resource="http://purl.org/dc/dcmitype/StillImage" />
        <dc:title></dc:title>
      </cc:Work>
    </rdf:RDF>
  </metadata>
  <g
     inkscape:label="Calque 1"
     inkscape:groupmode="layer"
     id="layer1"
     transform="translate(-279.55749,-430.06365)">
    <g
       transform="translate(139.99999,331.42856)"
       id="g4135">
      <path
         inkscape:export-ydpi="180"
         inkscape:export-xdpi="180"
         inkscape:export-filename="C:\Users\piret\Desktop\path4199-2-7-0-8-5-8-11.png"
         sodipodi:nodetypes="cscscccccccccccsccc"
         inkscape:connector-curvature="0"
         id="path3823-73-5"
         d="m 188.44264,118.17212 c 8.882,0.0932 20.339,6.81736 20.2079,19.00945 -0.072,6.64618 -1.553,7.69429 -3.2493,11.18732 1.2869,1.22312 2.7038,2.59044 4.2842,4.11768 13.2771,12.83088 15.1944,15.16659 19.8066,16.43783 5.5146,-3.03017 6.7175,-8.38283 7.8153,-16.7556 0.5549,-6.47943 0.4227,-14.50116 -1.737,-20.64777 -1.1404,-3.30282 -2.6834,-6.46788 -4.5371,-9.44185 -5.5167,-8.82255 -13.8678,-15.95023 -23.6304,-19.90027 -6.9524,-2.833693 -14.5887,-3.976053 -22.0871,-3.398033 -7.6359,0.56799 -15.1363,2.873873 -21.7188,6.716873 -3.7468,2.18441 -7.193,4.8635 -10.2146,7.94657 -2.9506,3.00558 -5.4825,6.39999 -7.5544,10.04421 -4.8099,8.53044 -6.9817,18.48508 -6.0648,28.2014 1.531,9.22113 2.1897,15.0244 8.7831,17.25324 6.7228,-2.03889 9.7393,-6.11936 16.9705,-13.84366 2.3876,-2.55037 4.8315,-4.8521 6.4107,-6.62333 -0.5244,-1.52908 -3.7269,-4.7898 -3.4622,-11.27257 0.3463,-8.48062 7.4364,-18.82927 19.9774,-19.03149 z"
         style="opacity:1;fill:#003a64;fill-opacity:1;stroke:none;stroke-width:2.54927135;stroke-miterlimit:4;stroke-dasharray:none;stroke-opacity:1" />
      <path
         inkscape:export-ydpi="180"
         inkscape:export-xdpi="180"
         inkscape:export-filename="C:\Users\piret\Desktop\path4199-2-7-0-8-5-8-11.png"
         sodipodi:nodetypes="ccccscscscccccccc"
         inkscape:connector-curvature="0"
         id="path4651-7-1"
         d="m 194.17944,194.49042 c 2.1918,-0.22536 4.3807,-0.48986 6.5503,-0.83583 2.6986,-0.44097 4.832,-1.4434 7.4551,-2.13268 4.8258,-2.50349 7.2108,-4.67483 11.0418,-7.15327 6.7242,-5.88543 1.8191,-8.42109 -9.9357,-20.4863 -6.1554,-6.31804 -11.207,-11.92578 -15.1533,-14.95162 4.1276,-1.85677 7.6213,-6.29809 7.6292,-11.85715 0.011,-7.54508 -7.0322,-11.76938 -12.8968,-11.78529 -6.1289,-0.0283 -13.4858,3.97301 -13.4484,12.12116 0.027,5.80426 4.4638,9.87332 7.9166,11.73668 -3.796,3.45405 -9.1535,8.76787 -14.9675,15.09409 -10.7116,10.13184 -16.0799,14.3037 -9.8363,21.19624 2.1316,1.04156 5.5564,4.12796 7.8085,4.9573 2.2567,0.79339 4.5639,1.47891 6.908,2.05948 2.1328,0.48444 4.8066,1.32056 6.9902,1.60572 3.0512,0.42991 4.9686,0.32173 8.0485,0.53564 1.7467,0.11339 4.1469,0.0826 5.8898,-0.10417 z"
         style="opacity:1;fill:#919295;fill-opacity:1;stroke:none;stroke-width:0.3874453;stroke-opacity:1" />
    </g>
  </g>
</svg>
